# xmcd
#
# Track frame offsets:
#	150
#	17221
#	31789
#	46260
#	67969
#	72953
#	82222
#	97545
#	111525
#	123337
#	139851
#	154374
#	170836
#	185515
#
# Disc length: 2897 seconds
#
# Revision: 0
# Processed by: cddbd v1.5.2PL0 Copyright (c) Steve Scherf et al.
# Submitted via: EasyCDDAExtractor 16.0.6.1
#
DISCID=c10b4f0e
DTITLE=Συλλογικός δίσκος - Τα 100 ωραιότερα ρεμπέτικα 1
DYEAR=1999
DGENRE=Ρεμπέτικη
TTITLE0=Νίνου Μαρίκα-Τσιτσάνης Βασίλης - Συννεφιασμένη Κυριακή [Β. Τσιτσάνης]
TTITLE1=Βαμβακάρης Βασίλης - Φραγκοσυριανή [Μ. Βαμβακάρης]
TTITLE2=Παπαϊωάννου Γιάννης - Σβήσε το φως να κοιμηθούμε [Γ. Παπαϊωάννου-Χ. Βα
TTITLE2=σιλειάδης]
TTITLE3=Τσιτσάνης Βασίλης - Αρχόντισσα [Β. Τσιτσάνης]
TTITLE4=Τσιτσάνης Βασίλης - Σερσέ λα φαμ [Β. Τσιτσάνης]
TTITLE5=Τσιτσάνης Βασίλης - Χατζηκυριάκειο [Δ. Γκόγκος]
TTITLE6=Νίνου Μαρίκα - Σεράχ [Β. Τσιτσάνης]
TTITLE7=Βαμβακάρης Μάρκος - Τα δυό σου χέρια πήρανε [Β. Τσιτσάνης-Κ. Βίρβος]
TTITLE8=Νίνου Μαρίκα - Ζαΐρα [Β. Τσιτσάνης-Κ. Βίρβος]
TTITLE9=Παπαϊωάννου Γιάννης - Τα σφάλματα (Απ' τις παρανομίες σου)[Γ. Παπαϊωάν
TTITLE9=νου-Α. Αγγελόπουλος]
TTITLE10=Βαμβακάρης Μάρκος - Στο Φάληρο που πλένεσαι [Β. Τσιτσάνης]
TTITLE11=Νίνου Μαρίκα - Παίξτε μπουζούκια και βιολιά [Β. Τσιτσάνης]
TTITLE12=Παπαϊωάννου Γιάννης - Φοβάμαι μη σε χάσω(Πώς θα περάσει βρ)[Γ.Παπαϊωά
TTITLE12=ννου-Α.Αγγελόπουλος]
TTITLE13=Τσιτσάνης Βασίλης - Στην Καλαμπάκα μιά βραδιά(Καλαμπακιώτισσα)[Β.Τσιτ
TTITLE13=σάνης-Σ.Παγιουμτζής]
EXTD=
EXTT0=
EXTT1=
EXTT2=
EXTT3=
EXTT4=
EXTT5=
EXTT6=
EXTT7=
EXTT8=
EXTT9=
EXTT10=
EXTT11=
EXTT12=
EXTT13=
PLAYORDER=
